<?xml version="1.0" encoding="UTF-8"?>
<!DOCTYPE svg PUBLIC "-//W3C//DTD SVG 1.1//EN" "http://www.w3.org/Graphics/SVG/1.1/DTD/svg11.dtd">
<svg xmlns="http://www.w3.org/2000/svg" version="1.1" width="962px" height="1036px" style="shape-rendering:geometricPrecision; text-rendering:geometricPrecision; image-rendering:optimizeQuality; fill-rule:evenodd; clip-rule:evenodd" xmlns:xlink="http://www.w3.org/1999/xlink">
<g><path style="opacity:1" fill="#12508d" d="M 453.5,0.5 C 458.167,0.5 462.833,0.5 467.5,0.5C 467.5,68.1667 467.5,135.833 467.5,203.5C 460.978,203.177 454.645,203.51 448.5,204.5C 358.405,212.766 289.238,254.766 241,330.5C 200.198,402.042 193.198,476.708 220,554.5C 233.23,589.327 252.73,619.994 278.5,646.5C 278.5,648.5 279.5,649.5 281.5,649.5C 346.311,710.708 422.977,734.208 511.5,720C 558.549,710.473 600.216,690.306 636.5,659.5C 643.167,654.833 648.833,649.167 653.5,642.5C 655.167,640.167 657.167,638.167 659.5,636.5C 660.906,636.027 661.573,635.027 661.5,633.5C 672.365,620.642 682.032,606.976 690.5,592.5C 691.906,592.027 692.573,591.027 692.5,589.5C 710.291,555.674 720.624,519.674 723.5,481.5C 723.865,476.906 724.865,472.573 726.5,468.5C 793.5,468.5 860.5,468.5 927.5,468.5C 927.5,474.167 927.5,479.833 927.5,485.5C 920.519,611.725 871.519,718.225 780.5,805C 668.824,904.524 538.49,943.857 389.5,923C 374.859,920.641 360.525,917.474 346.5,913.5C 344.485,912.076 342.152,911.41 339.5,911.5C 302.044,901.767 266.711,887.1 233.5,867.5C 233.027,866.094 232.027,865.427 230.5,865.5C 143.366,814.525 79.1989,742.859 38,650.5C 15.4015,597.655 2.56819,542.655 -0.5,485.5C -0.5,471.5 -0.5,457.5 -0.5,443.5C 0.303644,433.913 1.30364,424.246 2.5,414.5C 3.88899,409.731 4.55565,404.731 4.5,399.5C 12.0238,340.593 30.6904,285.593 60.5,234.5C 61.9063,234.027 62.573,233.027 62.5,231.5C 83.5423,194.439 109.542,161.105 140.5,131.5C 145.105,128.564 149.105,124.898 152.5,120.5C 186.623,88.7458 224.956,62.9125 267.5,43C 283.183,35.9403 299.183,29.7737 315.5,24.5C 320.165,23.9431 324.498,22.6098 328.5,20.5C 349.868,13.2235 371.868,8.2235 394.5,5.5C 399.731,5.55565 404.731,4.88899 409.5,3.5C 423.929,1.1887 438.595,0.188703 453.5,0.5 Z"/></g>
<g><path style="opacity:0.318" fill="#b3c7da" d="M 453.5,0.5 C 453.5,0.166667 453.5,-0.166667 453.5,-0.5C 458.5,-0.5 463.5,-0.5 468.5,-0.5C 468.5,67.8333 468.5,136.167 468.5,204.5C 461.833,204.5 455.167,204.5 448.5,204.5C 454.645,203.51 460.978,203.177 467.5,203.5C 467.5,135.833 467.5,68.1667 467.5,0.5C 462.833,0.5 458.167,0.5 453.5,0.5 Z"/></g>
<g><path style="opacity:0.984" fill="#688ab4" d="M 409.5,3.5 C 404.731,4.88899 399.731,5.55565 394.5,5.5C 399.269,4.11101 404.269,3.44435 409.5,3.5 Z"/></g>
<g><path style="opacity:0.961" fill="#6d8db5" d="M 328.5,20.5 C 324.498,22.6098 320.165,23.9431 315.5,24.5C 319.502,22.3902 323.835,21.0569 328.5,20.5 Z"/></g>
<g><path style="opacity:0.906" fill="#7492b9" d="M 152.5,120.5 C 149.105,124.898 145.105,128.564 140.5,131.5C 143.895,127.102 147.895,123.436 152.5,120.5 Z"/></g>
<g><path style="opacity:0.337" fill="#aec1d7" d="M 62.5,231.5 C 62.573,233.027 61.9063,234.027 60.5,234.5C 60.427,232.973 61.0937,231.973 62.5,231.5 Z"/></g>
<g><path style="opacity:0.345" fill="#fdcc88" d="M 726.5,261.5 C 657.5,261.5 588.5,261.5 519.5,261.5C 519.5,330.167 519.5,398.833 519.5,467.5C 588.5,467.5 657.5,467.5 726.5,467.5C 726.5,467.833 726.5,468.167 726.5,468.5C 724.865,472.573 723.865,476.906 723.5,481.5C 723.5,477.167 723.5,472.833 723.5,468.5C 655.167,468.5 586.833,468.5 518.5,468.5C 518.5,399.167 518.5,329.833 518.5,260.5C 588.002,260.167 657.335,260.501 726.5,261.5 Z"/></g>
<g><path style="opacity:1" fill="#fd9807" d="M 726.5,261.5 C 726.5,330.167 726.5,398.833 726.5,467.5C 657.5,467.5 588.5,467.5 519.5,467.5C 519.5,398.833 519.5,330.167 519.5,261.5C 588.5,261.5 657.5,261.5 726.5,261.5 Z"/></g>
<g><path style="opacity:0.773" fill="#7b9abe" d="M 4.5,399.5 C 4.55565,404.731 3.88899,409.731 2.5,414.5C 2.44435,409.269 3.11101,404.269 4.5,399.5 Z"/></g>
<g><path style="opacity:0.329" fill="#b1c5d9" d="M 726.5,468.5 C 726.5,468.167 726.5,467.833 726.5,467.5C 793.833,467.5 861.167,467.5 928.5,467.5C 928.823,473.69 928.49,479.69 927.5,485.5C 927.5,479.833 927.5,474.167 927.5,468.5C 860.5,468.5 793.5,468.5 726.5,468.5 Z"/></g>
<g><path style="opacity:0.345" fill="#acc0d6" d="M 692.5,589.5 C 692.573,591.027 691.906,592.027 690.5,592.5C 690.427,590.973 691.094,589.973 692.5,589.5 Z"/></g>
<g><path style="opacity:0.635" fill="#aabed5" d="M 661.5,633.5 C 661.573,635.027 660.906,636.027 659.5,636.5C 659.427,634.973 660.094,633.973 661.5,633.5 Z"/></g>
<g><path style="opacity:0.69" fill="#aabed5" d="M 278.5,646.5 C 279.833,647.167 280.833,648.167 281.5,649.5C 279.5,649.5 278.5,648.5 278.5,646.5 Z"/></g>
<g><path style="opacity:0.784" fill="#829ec0" d="M 653.5,642.5 C 648.833,649.167 643.167,654.833 636.5,659.5C 641.833,653.5 647.5,647.833 653.5,642.5 Z"/></g>
<g><path style="opacity:0.357" fill="#abc0d6" d="M 230.5,865.5 C 232.027,865.427 233.027,866.094 233.5,867.5C 231.973,867.573 230.973,866.906 230.5,865.5 Z"/></g>
<g><path style="opacity:0.725" fill="#83a0c2" d="M 339.5,911.5 C 342.152,911.41 344.485,912.076 346.5,913.5C 343.848,913.59 341.515,912.924 339.5,911.5 Z"/></g>
</svg>
