<?xml version="1.0" encoding="UTF-8"?>
<svg version="1.1" xmlns="http://www.w3.org/2000/svg" width="424" height="427">
<path d="M0 0 C0 28.71 0 57.42 0 87 C-9.9 87.99 -9.9 87.99 -20 89 C-31.20575323 91.4071618 -41.99621528 94.43060128 -52.2421875 99.65234375 C-55 101 -55 101 -57 101 C-57 101.66 -57 102.32 -57 103 C-58.1446875 103.4021875 -58.1446875 103.4021875 -59.3125 103.8125 C-61.96662954 104.98525491 -63.03854108 105.95681362 -65 108 C-65.78375 108.45375 -66.5675 108.9075 -67.375 109.375 C-70.16223619 110.96182678 -70.16223619 110.96182678 -72.625 113.625 C-75 116 -75 116 -78 117 C-78 117.66 -78 118.32 -78 119 C-79.13220357 120.13220357 -80.26899124 121.26011626 -81.42578125 122.3671875 C-85.01030311 126.08512829 -88.68336268 130.36672536 -91 135 C-91.66 135 -92.32 135 -93 135 C-93.226875 135.804375 -93.45375 136.60875 -93.6875 137.4375 C-94.74998975 140.32140075 -95.85433699 142.61574376 -97.375 145.25 C-100.08313927 150.01505443 -102.15037224 154.84481258 -104 160 C-104.52787109 161.46566406 -104.52787109 161.46566406 -105.06640625 162.9609375 C-113.20369216 187.28271456 -110.71922301 211.76026419 -102.20703125 235.5 C-101 239 -101 239 -101 241 C-100.34 241.33 -99.68 241.66 -99 242 C-98.14199371 243.70704388 -97.3395144 245.44209969 -96.5625 247.1875 C-84.01839126 272.88762522 -59.81877035 289.17466004 -33.5 298.4375 C-13.72686097 304.91382876 10.27232937 304.31304811 30 298 C30.67772461 297.79101074 31.35544922 297.58202148 32.05371094 297.36669922 C59.00946923 288.85133308 80.20326597 269.95551723 93.76318359 245.38037109 C100.38332768 232.63927262 104.37126475 219.08660256 105.53173828 204.77490234 C105.61996857 203.69365082 105.70819885 202.61239929 105.79910278 201.49838257 C105.86539886 200.67391632 105.93169495 199.84945007 106 199 C104.93733414 198.98969254 103.87466827 198.97938507 102.77980042 198.96876526 C92.78779051 198.87120521 82.79584531 198.7684881 72.80394077 198.66066074 C67.66643531 198.60538692 62.52892421 198.55195993 57.39135742 198.50268555 C52.43763538 198.4551076 47.48398488 198.40276744 42.53034782 198.34705925 C40.63604439 198.32660582 38.74172132 198.3078978 36.8473835 198.29092598 C34.203603 198.26694784 31.55995902 198.2368847 28.91625977 198.20532227 C28.12504227 198.1995668 27.33382477 198.19381134 26.51863098 198.18788147 C21.11405216 198.11405216 21.11405216 198.11405216 20 197 C19.8995635 194.36854432 19.86383157 191.76330965 19.87060547 189.13134766 C19.86797699 187.89477669 19.86797699 187.89477669 19.86529541 186.63322449 C19.86087506 183.89348274 19.86381606 181.15380497 19.8671875 178.4140625 C19.86651438 176.51695747 19.86554429 174.61985253 19.86428833 172.7227478 C19.862811 168.73963605 19.86496654 164.75654666 19.86962891 160.7734375 C19.87531847 155.66309128 19.87205231 150.55279766 19.86605644 145.44245338 C19.86244516 141.52201948 19.86359217 137.60159807 19.86618423 133.68116379 C19.86685233 131.79686858 19.86602916 129.91257224 19.86370468 128.02827835 C19.86116974 125.39463544 19.86503106 122.76107795 19.87060547 120.12744141 C19.86858124 119.3449855 19.86655701 118.5625296 19.86447144 117.75636292 C19.87698699 114.57010407 19.98480584 112.04558249 21 109 C49.71 109 78.42 109 108 109 C108.58930206 118.42883296 109.15818035 127.68140481 109.13894653 137.10346985 C109.13807163 137.7931164 109.13719673 138.48276295 109.13629532 139.19330788 C109.13514599 139.89908659 109.13399666 140.6048653 109.1328125 141.33203125 C109.13348865 142.8265535 109.13446124 144.32107565 109.13571167 145.81559753 C109.13716811 148.90873285 109.13509738 152.00183885 109.13037109 155.0949707 C109.12460938 159.05810466 109.12800586 163.02117183 109.13394356 166.98430347 C109.13754984 170.05287688 109.13641139 173.12143429 109.13381577 176.19000816 C109.13315004 177.65284928 109.13396253 179.11569186 109.13629532 180.57853127 C109.13882992 182.60940142 109.13428297 184.64027672 109.12939453 186.67114258 C109.12820114 188.40077995 109.12820114 188.40077995 109.12698364 190.1653595 C109 193 109 193 108 196 C136.05 196 164.1 196 193 196 C193 204.66913514 192.97922222 212.64601096 191.8125 221.125 C191.6786792 222.10654053 191.5448584 223.08808105 191.40698242 224.09936523 C187.17702338 253.3414609 176.5212138 280.58302277 160 305 C159.16652697 306.2538134 158.33319541 307.50772085 157.5 308.76171875 C152.96600591 315.49781066 152.96600591 315.49781066 151 318 C150.34 318 149.68 318 149 318 C148.75507813 318.55042969 148.51015625 319.10085938 148.2578125 319.66796875 C144.28383421 327.0358726 138.11066439 333.22676008 131.703125 338.51171875 C129.80434179 340.07247972 129.80434179 340.07247972 127.9375 342.6875 C125.87109621 345.15385291 123.79324775 346.35651552 120.97265625 347.84765625 C118.7235802 349.16147295 116.7804688 350.68158678 114.75 352.3125 C101.30965909 363 101.30965909 363 97 363 C97 363.66 97 364.32 97 365 C71.61973879 377.49664281 46.50466044 387.48306949 18.0625 390.125 C17.15862549 390.20919189 16.25475098 390.29338379 15.32348633 390.38012695 C6.92510345 391.10287557 -1.41065846 391.27475978 -9.83447266 391.05322266 C-11.82018644 391.00441932 -13.80668167 390.9906968 -15.79296875 390.98046875 C-62.00731583 389.66562431 -106.19272419 366.316036 -139 335 C-139.85335937 334.19949219 -140.70671875 333.39898437 -141.5859375 332.57421875 C-168.96802758 306.18548525 -185.7826144 270.69912969 -194 234 C-194.18079102 233.2049707 -194.36158203 232.40994141 -194.54785156 231.59082031 C-199.67849864 207.87560272 -198.64591834 180.71020395 -194 157 C-193.86078125 156.26265625 -193.7215625 155.5253125 -193.578125 154.765625 C-184.96457571 110.42179717 -159.22853849 69.94952922 -124 42 C-122.58654297 40.82630859 -122.58654297 40.82630859 -121.14453125 39.62890625 C-86.54064334 11.65034228 -43.80460634 0 0 0 Z " fill="#0E4E8B" transform="translate(206,10)"/>
<path d="M0 0 C28.71 0 57.42 0 87 0 C88.125 18 88.125 18 88.11352539 24.42578125 C88.11367142 25.13037476 88.11381744 25.83496826 88.1139679 26.56091309 C88.11329013 28.81147735 88.10560237 31.06195085 88.09765625 33.3125 C88.09578441 34.90388951 88.09436414 36.49527962 88.09336853 38.08666992 C88.08960353 42.21616286 88.07982693 46.34561898 88.06866455 50.47509766 C88.05831878 54.71256004 88.05384311 58.95002855 88.04882812 63.1875 C88.03819737 71.45834998 88.02119616 79.72917037 88 88 C84.17230696 90.54350208 80.26691022 90.23703462 75.85083008 90.15112305 C75.03255234 90.14326782 74.2142746 90.1354126 73.37120056 90.12731934 C70.67042223 90.09877406 67.97010198 90.05551447 65.26953125 90.01171875 C63.39435238 89.98808409 61.51916377 89.96521128 59.64396667 89.94306946 C55.71736302 89.89456235 51.79093673 89.839198 47.86450195 89.77856445 C42.82030202 89.70088453 37.77604435 89.63658367 32.73160267 89.57690716 C28.86181422 89.53029341 24.9921096 89.47850754 21.12241173 89.42493629 C19.26159928 89.39945028 17.40077011 89.37515772 15.53992653 89.3520565 C12.94684326 89.31872098 10.35394481 89.27887909 7.76098633 89.23706055 C6.98540375 89.22816299 6.20982117 89.21926544 5.41073608 89.21009827 C0.11449258 89.11449258 0.11449258 89.11449258 -1 88 C-1.1004365 85.36854432 -1.13616843 82.76330965 -1.12939453 80.13134766 C-1.13114685 79.30696701 -1.13289917 78.48258636 -1.13470459 77.63322449 C-1.13912494 74.89348274 -1.13618394 72.15380497 -1.1328125 69.4140625 C-1.13348562 67.51695747 -1.13445571 65.61985253 -1.13571167 63.7227478 C-1.137189 59.73963605 -1.13503346 55.75654666 -1.13037109 51.7734375 C-1.12468153 46.66309128 -1.12794769 41.55279766 -1.13394356 36.44245338 C-1.13755484 32.52201948 -1.13640783 28.60159807 -1.13381577 24.68116379 C-1.13314767 22.79686858 -1.13397084 20.91257224 -1.13629532 19.02827835 C-1.13883026 16.39463544 -1.13496894 13.76107795 -1.12939453 11.12744141 C-1.13141876 10.3449855 -1.13344299 9.5625296 -1.13552856 8.75636292 C-1.12301301 5.57010407 -1.01519416 3.04558249 0 0 Z " fill="#FE9907" transform="translate(227,119)"/>
<path d="M0 0 C0 28.71 0 57.42 0 87 C-9.9 87.99 -9.9 87.99 -20 89 C-22.475 89.495 -22.475 89.495 -25 90 C-25 89.01 -25 88.02 -25 87 C-16.748409 85.14793949 -9.67220863 85 -1 85 C-1 57.28 -1 29.56 -1 1 C-14.77979255 1.6011169 -14.77979255 1.6011169 -28.0625 3.5 C-33.70153668 4.5872246 -39.27846713 5.47986065 -45 6 C-45 5.34 -45 4.68 -45 4 C-29.50885764 0.71587782 -16.27870789 0 0 0 Z " fill="#21517F" transform="translate(206,10)"/>
<path d="M0 0 C0.66 0 1.32 0 2 0 C2 0.66 2 1.32 2 2 C2.66 2 3.32 2 4 2 C4.33 1.34 4.66 0.68 5 0 C5.77213333 0.02505615 6.54426666 0.0501123 7.33979797 0.07592773 C14.70657459 0.31443473 22.07343859 0.54994684 29.44041157 0.78230286 C33.22554543 0.90178699 37.01063874 1.02232867 40.7956543 1.14550781 C64.89227476 1.92896525 64.89227476 1.92896525 89 2 C88.00895691 3.48445129 88.00895691 3.48445129 86 5 C83.2062417 5.25136612 80.6456278 5.32040903 77.85668945 5.2487793 C76.61245209 5.23480606 76.61245209 5.23480606 75.34307861 5.22055054 C72.59939915 5.18615612 69.8565968 5.13026664 67.11328125 5.07421875 C65.21186697 5.04618858 63.31043251 5.01949786 61.40898132 4.99409485 C56.40278421 4.92360547 51.39706845 4.83489239 46.39123535 4.74243164 C41.28377581 4.65130295 36.1760712 4.57734205 31.06835938 4.50195312 C21.04525747 4.35147447 11.02258019 4.18175009 1 4 C0.67 2.68 0.34 1.36 0 0 Z " fill="#FB9B15" transform="translate(226,204)"/>
<path d="M0 0 C-0.99104309 1.48445129 -0.99104309 1.48445129 -3 3 C-5.7937583 3.25136612 -8.3543722 3.32040903 -11.14331055 3.2487793 C-12.38754791 3.23480606 -12.38754791 3.23480606 -13.65692139 3.22055054 C-16.40060085 3.18615612 -19.1434032 3.13026664 -21.88671875 3.07421875 C-23.78813303 3.04618858 -25.68956749 3.01949786 -27.59101868 2.99409485 C-32.59721579 2.92360547 -37.60293155 2.83489239 -42.60876465 2.74243164 C-47.71622419 2.65130295 -52.8239288 2.57734205 -57.93164062 2.50195312 C-67.95474253 2.35147447 -77.97741981 2.18175009 -88 2 C-88 1.67 -88 1.34 -88 1 C-77.55981287 0.86910374 -67.11961997 0.73867822 -56.67941952 0.60884857 C-51.83128002 0.5485446 -46.98314264 0.48808036 -42.13500977 0.42724609 C-37.45363895 0.36851032 -32.77226301 0.31020043 -28.09088326 0.25218201 C-26.30758031 0.23000662 -24.52427924 0.20767949 -22.74098015 0.18519592 C-20.23739982 0.15365744 -17.73381327 0.12266544 -15.23022461 0.09179688 C-14.49798172 0.08244614 -13.76573883 0.0730954 -13.01130676 0.0634613 C-8.67371606 0.01065635 -4.33779147 -0.00833572 0 0 Z " fill="#E7A140" transform="translate(315,206)"/>
<path d="M0 0 C4.58719739 1.35199649 9.081407 1.37917822 13.8359375 1.44140625 C15.21943138 1.47045547 15.21943138 1.47045547 16.63087463 1.50009155 C19.55460586 1.55950495 22.47837728 1.60611884 25.40234375 1.65234375 C27.39389665 1.69055877 29.38543365 1.72961252 31.37695312 1.76953125 C36.23945298 1.86517479 41.10203013 1.94934596 45.96484375 2.02734375 C45.96484375 2.35734375 45.96484375 2.68734375 45.96484375 3.02734375 C27.55487511 4.87825622 6.95247992 5.84546058 -11.03515625 1.02734375 C-11.03515625 0.69734375 -11.03515625 0.36734375 -11.03515625 0.02734375 C-3.8488429 -1.23341298 -3.8488429 -1.23341298 0 0 Z " fill="#1F507A" transform="translate(180.03515625,396.97265625)"/>
<path d="M0 0 C1.16402344 0.15339844 2.32804688 0.30679687 3.52734375 0.46484375 C10.5157731 1.2413359 17.53944651 1.3591858 24.5625 1.5625 C25.96680703 1.60579176 27.37110406 1.64940904 28.77539062 1.69335938 C32.18350951 1.79876511 35.5916932 1.90088982 39 2 C38.67 2.66 38.34 3.32 38 4 C33.45905355 4.2266442 28.91732535 4.42809131 24.375 4.625 C23.08980469 4.68945312 21.80460937 4.75390625 20.48046875 4.8203125 C19.23652344 4.871875 17.99257812 4.9234375 16.7109375 4.9765625 C15.56931152 5.02893066 14.42768555 5.08129883 13.25146484 5.13525391 C9.8039459 4.99184457 7.20975231 4.22382934 4 3 C2.67088318 2.65023242 1.33917261 2.30903983 0 2 C0 1.34 0 0.68 0 0 Z " fill="#235481" transform="translate(180,311)"/>
<path d="M0 0 C0.66 1.32 1.32 2.64 2 4 C1.34 4.66 0.68 5.32 0 6 C-0.66 5.67 -1.32 5.34 -2 5 C-2.309375 5.61875 -2.61875 6.2375 -2.9375 6.875 C-3.625 8.25 -4.3125 9.625 -5 11 C-5.66 11 -6.32 11 -7 11 C-7 11.66 -7 12.32 -7 13 C-7.99 13 -8.98 13 -10 13 C-10 13.66 -10 14.32 -10 15 C-11.86328125 16.65625 -11.86328125 16.65625 -14.3125 18.5 C-15.11300781 19.1084375 -15.91351563 19.716875 -16.73828125 20.34375 C-18.46143275 21.60560879 -20.22292703 22.81528469 -22 24 C-22.99 23.67 -23.98 23.34 -25 23 C-24.154375 22.3709375 -23.30875 21.741875 -22.4375 21.09375 C-14.08190224 14.8144141 -6.32040974 8.42721298 0 0 Z " fill="#1B507F" transform="translate(290,271)"/>
<path d="M0 0 C0.45375 0.969375 0.9075 1.93875 1.375 2.9375 C2.65786221 6.07079582 2.65786221 6.07079582 5 7 C5 7.66 5 8.32 5 9 C3.68 9 2.36 9 1 9 C1 8.34 1 7.68 1 7 C0.34 7 -0.32 7 -1 7 C-1 6.34 -1 5.68 -1 5 C-1.99 5 -2.98 5 -4 5 C-4.23460938 5.64453125 -4.46921875 6.2890625 -4.7109375 6.953125 C-6 9 -6 9 -8.1640625 9.609375 C-8.97617188 9.65578125 -9.78828125 9.7021875 -10.625 9.75 C-11.44226563 9.80671875 -12.25953125 9.8634375 -13.1015625 9.921875 C-13.72804688 9.94765625 -14.35453125 9.9734375 -15 10 C-11.33829025 5.99500496 -5.76187936 0 0 0 Z " fill="#174F83" transform="translate(105,37)"/>
<path d="M0 0 C0.99 0.33 1.98 0.66 3 1 C-2.57749342 4.69084731 -8.25709412 7.68392773 -14.375 10.375 C-15.18066406 10.74238281 -15.98632812 11.10976563 -16.81640625 11.48828125 C-17.58597656 11.82988281 -18.35554688 12.17148437 -19.1484375 12.5234375 C-19.84114746 12.83200684 -20.53385742 13.14057617 -21.24755859 13.45849609 C-23 14 -23 14 -25 13 C-22.62671491 10.25198568 -20.3518635 9.28917827 -17 8 C-16.34 7.34 -15.68 6.68 -15 6 C-12.66752239 5.66073053 -10.33414529 5.32759934 -8 5 C-7.01 4.34 -6.02 3.68 -5 3 C-4.01 3 -3.02 3 -2 3 C-2 2.34 -2 1.68 -2 1 C-1.34 0.67 -0.68 0.34 0 0 Z " fill="#1F547D" transform="translate(298,374)"/>
<path d="M0 0 C0.33 0.66 0.66 1.32 1 2 C0.01 2.495 0.01 2.495 -1 3 C-1.28359375 3.64839844 -1.5671875 4.29679687 -1.859375 4.96484375 C-3 7 -3 7 -4.953125 7.94140625 C-5.71109375 8.14636719 -6.4690625 8.35132813 -7.25 8.5625 C-10.13340973 9.40541371 -12.43406643 10.22571454 -15.125 11.625 C-18.4304271 13.20585644 -21.37249068 13.63724907 -25 14 C-25 13.34 -25 12.68 -25 12 C-23.54980469 11.45472656 -23.54980469 11.45472656 -22.0703125 10.8984375 C-14.24434102 7.89688805 -7.01992944 4.65792965 0 0 Z " fill="#1F4F7C" transform="translate(264,295)"/>
<path d="M0 0 C3.3 0 6.6 0 10 0 C7.20884322 1.86077118 5.61115287 2.49264983 2.4375 3.25390625 C1.11878906 3.57584961 1.11878906 3.57584961 -0.2265625 3.90429688 C-1.59941406 4.23010742 -1.59941406 4.23010742 -3 4.5625 C-4.8127271 5.00036296 -6.62523688 5.43912686 -8.4375 5.87890625 C-9.24058594 6.0704126 -10.04367188 6.26191895 -10.87109375 6.45922852 C-12.60126142 6.89871491 -14.3064931 7.4354977 -16 8 C-16.33 7.01 -16.66 6.02 -17 5 C-14.91798472 4.49453964 -12.83432933 3.99583165 -10.75 3.5 C-9.58984375 3.2215625 -8.4296875 2.943125 -7.234375 2.65625 C-4 2 -4 2 0 2 C0 1.34 0 0.68 0 0 Z " fill="#1F537F" transform="translate(257,390)"/>
<path d="M0 0 C2 1 2 1 3.375 4.4375 C5.10434079 8.22874712 5.46415559 8.46780076 9 10 C9.144375 10.598125 9.28875 11.19625 9.4375 11.8125 C9.88423147 14.31877109 9.88423147 14.31877109 12.5625 16.5625 C13.366875 17.366875 14.17125 18.17125 15 19 C15 19.99 15 20.98 15 22 C8.82236296 16.12535334 3.0215594 9.90464418 -2 3 C-2 2.34 -2 1.68 -2 1 C-1.34 0.67 -0.68 0.34 0 0 Z " fill="#1B4A76" transform="translate(50,321)"/>
<path d="M0 0 C4.38889325 0.66498383 7.9811485 2.18757677 12 4 C12 4.66 12 5.32 12 6 C14.97 6.33 17.94 6.66 21 7 C21.33 8.32 21.66 9.64 22 11 C14.04199322 8.707015 7.18082279 5.05100513 0 1 C0 0.67 0 0.34 0 0 Z " fill="#1B5077" transform="translate(106,374)"/>
<path d="M0 0 C2.33390113 3.5008517 2.12190098 4.34458092 1.625 8.375 C1.20149693 11.95015382 0.93451127 15.39811987 1 19 C0.34 19.33 -0.32 19.66 -1 20 C-1.66 20.99 -2.32 21.98 -3 23 C-2.48351265 15.21191437 -1.55123466 7.65074958 0 0 Z " fill="#174A7B" transform="translate(13,162)"/>
<path d="M0 0 C-0.55429688 0.27585937 -1.10859375 0.55171875 -1.6796875 0.8359375 C-3.29321642 1.64541834 -4.90229885 2.46379847 -6.5078125 3.2890625 C-7.37148437 3.72992188 -8.23515625 4.17078125 -9.125 4.625 C-9.99382812 5.07101563 -10.86265625 5.51703125 -11.7578125 5.9765625 C-14 7 -14 7 -16 7 C-16 7.66 -16 8.32 -16 9 C-17.65 9.33 -19.3 9.66 -21 10 C-20.34 9.01 -19.68 8.02 -19 7 C-18.34 7 -17.68 7 -17 7 C-17 5.68 -17 4.36 -17 3 C-15.700625 3.0928125 -15.700625 3.0928125 -14.375 3.1875 C-8.9987928 2.88882182 -5.54960494 -0.48967102 0 0 Z " fill="#1C507B" transform="translate(165,104)"/>
<path d="M0 0 C0.33 0 0.66 0 1 0 C1.56164384 9.54794521 1.56164384 9.54794521 -2 14 C-3.29579647 15.36984198 -4.61992749 16.7151049 -6 18 C-4.23536928 11.89262558 -2.30442525 5.92566493 0 0 Z " fill="#184B79" transform="translate(308,235)"/>
<path d="M0 0 C0.99 0.33 1.98 0.66 3 1 C-10.42857143 13 -10.42857143 13 -15 13 C-15 12.34 -15 11.68 -15 11 C-13.68 10.67 -12.36 10.34 -11 10 C-11 9.34 -11 8.68 -11 8 C-10.01 8 -9.02 8 -8 8 C-8 7.34 -8 6.68 -8 6 C-5.66633067 3.98821609 -3.95214486 2.98404829 -1 2 C-0.67 1.34 -0.34 0.68 0 0 Z " fill="#1E4E7C" transform="translate(323,357)"/>
<path d="M0 0 C0.928125 0.825 1.85625 1.65 2.8125 2.5 C7.63858793 6.65083283 12.81940662 10.30894432 18 14 C17.01 14.33 16.02 14.66 15 15 C13 13.625 13 13.625 11 12 C10.01 11.67 9.02 11.34 8 11 C6.2109375 9.2578125 6.2109375 9.2578125 4.375 7.125 C3.76398438 6.42632812 3.15296875 5.72765625 2.5234375 5.0078125 C1 3 1 3 0 0 Z " fill="#20517D" transform="translate(126,281)"/>
<path d="M0 0 C0 0.33 0 0.66 0 1 C-7.59 1.99 -15.18 2.98 -23 4 C-23 3.34 -23 2.68 -23 2 C-15.26134446 -0.13480153 -7.99976044 -0.20483028 0 0 Z " fill="#24598B" transform="translate(184,12)"/>
<path d="M0 0 C2.475 0.99 2.475 0.99 5 2 C2.68462045 5.72114571 0.71420527 8.61229661 -3 11 C-3 10.01 -3 9.02 -3 8 C-2.34 8 -1.68 8 -1 8 C-1.020625 6.865625 -1.04125 5.73125 -1.0625 4.5625 C-1 1 -1 1 0 0 Z " fill="#17497C" transform="translate(348,329)"/>
<path d="M0 0 C0.33 0.66 0.66 1.32 1 2 C1.66 2.33 2.32 2.66 3 3 C3.93761121 4.61098653 4.80391401 6.26411715 5.625 7.9375 C6.07101563 8.83339844 6.51703125 9.72929687 6.9765625 10.65234375 C8 13 8 13 8 15 C7.34 15 6.68 15 6 15 C5.731875 14.360625 5.46375 13.72125 5.1875 13.0625 C4.11332248 10.66868314 4.11332248 10.66868314 1 10 C0.67 6.7 0.34 3.4 0 0 Z " fill="#194774" transform="translate(104,249)"/>
<path d="M0 0 C0.33 0.66 0.66 1.32 1 2 C0.360625 2.4125 -0.27875 2.825 -0.9375 3.25 C-3.20990931 5.17810487 -3.60196439 6.11424181 -4 9 C-4.639375 9.103125 -5.27875 9.20625 -5.9375 9.3125 C-6.9584375 9.6528125 -6.9584375 9.6528125 -8 10 C-8.33 10.99 -8.66 11.98 -9 13 C-10.32 12.67 -11.64 12.34 -13 12 C-11.21135158 10.18443212 -9.41928379 8.37248378 -7.625 6.5625 C-7.11710937 6.04623047 -6.60921875 5.52996094 -6.0859375 4.99804688 C-2.2265625 1.11328125 -2.2265625 1.11328125 0 0 Z " fill="#1D4D76" transform="translate(73,60)"/>
<path d="M0 0 C0.99 0.33 1.98 0.66 3 1 C-2.0022779 11.55808656 -2.0022779 11.55808656 -6 16 C-6.33 15.01 -6.66 14.02 -7 13 C-6.34 13 -5.68 13 -5 13 C-4.67 11.35 -4.34 9.7 -4 8 C-3.34 8 -2.68 8 -2 8 C-2 7.01 -2 6.02 -2 5 C-1.34 5 -0.68 5 0 5 C0 3.35 0 1.7 0 0 Z " fill="#174E79" transform="translate(377,290)"/>
<path d="M0 0 C0.33 1.65 0.66 3.3 1 5 C-4.75 4.125 -4.75 4.125 -7 3 C-7 2.34 -7 1.68 -7 1 C-4.53721199 -0.231394 -2.7204945 -0.07159196 0 0 Z " fill="#154E7E" transform="translate(143,386)"/>
<path d="M0 0 C1.32 0 2.64 0 4 0 C2.6062718 4.43458973 0.39417765 6.87378374 -3 10 C-3.33 9.01 -3.66 8.02 -4 7 C-3.34 6.34 -2.68 5.68 -2 5 C-1.29289322 3.35008418 -0.62056011 1.68437744 0 0 Z " fill="#164C80" transform="translate(360,316)"/>
<path d="M0 0 C0 3.96 0 7.92 0 12 C-0.66 11.67 -1.32 11.34 -2 11 C-2.4140625 8.71484375 -2.4140625 8.71484375 -2.625 5.9375 C-2.69976562 5.01839844 -2.77453125 4.09929687 -2.8515625 3.15234375 C-2.90054688 2.44207031 -2.94953125 1.73179687 -3 1 C-1 0 -1 0 0 0 Z " fill="#164C80" transform="translate(95,201)"/>
<path d="M0 0 C0.66 0.33 1.32 0.66 2 1 C1.67 1.33 1.34 1.66 1 2 C1.04125 3.010625 1.0825 4.02125 1.125 5.0625 C0.97656145 9.73831426 -0.19573619 12.71487344 -2 17 C-3.21725138 13.34824587 -2.7372823 11.15773038 -2.125 7.375 C-1.94195312 6.20710937 -1.75890625 5.03921875 -1.5703125 3.8359375 C-1 1 -1 1 0 0 Z " fill="#1A4772" transform="translate(314,207)"/>
<path d="M0 0 C1.32 0 2.64 0 4 0 C2.515 5.445 2.515 5.445 1 11 C0.34 10.34 -0.32 9.68 -1 9 C-1 8.01 -1 7.02 -1 6 C-0.34 6 0.32 6 1 6 C0.67 4.02 0.34 2.04 0 0 Z " fill="#144673" transform="translate(100,162)"/>
<path d="M0 0 C0.33 0 0.66 0 1 0 C0.91306859 1.79258558 0.80489496 3.58415144 0.6875 5.375 C0.62949219 6.37273437 0.57148438 7.37046875 0.51171875 8.3984375 C0.34285156 9.25695312 0.17398437 10.11546875 0 11 C-0.99 11.66 -1.98 12.32 -3 13 C-2.45144652 8.428721 -1.58255197 4.32564205 0 0 Z " fill="#1B4B7A" transform="translate(19,141)"/>
<path d="M0 0 C1.32 0 2.64 0 4 0 C3.67 3.3 3.34 6.6 3 10 C0.70366176 6.55549263 0.45983515 4.06187717 0 0 Z " fill="#164A7E" transform="translate(16,256)"/>
<path d="M0 0 C-1.11328125 1.51953125 -1.11328125 1.51953125 -3 3 C-5.91796875 3.07421875 -5.91796875 3.07421875 -9.1875 2.6875 C-10.27417969 2.56761719 -11.36085938 2.44773438 -12.48046875 2.32421875 C-13.31191406 2.21722656 -14.14335937 2.11023438 -15 2 C-15 1.67 -15 1.34 -15 1 C-9.92928099 0.28832014 -5.11791642 -0.10662326 0 0 Z " fill="#C98B37" transform="translate(315,206)"/>
<path d="M0 0 C-3.51009579 1.96565364 -7.09618518 3.06019273 -11 4 C-11.66 3.67 -12.32 3.34 -13 3 C-13 2.34 -13 1.68 -13 1 C-8.60563789 0.14256349 -4.47427924 -0.08948558 0 0 Z " fill="#1F4F7E" transform="translate(180,99)"/>
<path d="M0 0 C1.32 0.66 2.64 1.32 4 2 C3.34 4.31 2.68 6.62 2 9 C0.05276405 6.07914607 -0.55175352 4.40667322 -1 1 C-0.67 0.67 -0.34 0.34 0 0 Z " fill="#124E7E" transform="translate(20,266)"/>
<path d="M0 0 C2.93200474 2.85276137 5.64315404 5.65079784 8 9 C5.04709864 7.62901008 2.39580248 6.22467373 0 4 C0 2.68 0 1.36 0 0 Z " fill="#1C4A75" transform="translate(118,272)"/>
<path d="M0 0 C0.33 0.99 0.66 1.98 1 3 C1.66 3.33 2.32 3.66 3 4 C2.360625 4.28875 1.72125 4.5775 1.0625 4.875 C-1.15206079 5.82823451 -1.15206079 5.82823451 -2 8 C-2.66 8 -3.32 8 -4 8 C-2.87548273 5.0280615 -1.77706209 2.66559313 0 0 Z " fill="#144877" transform="translate(299,257)"/>
<path d="M0 0 C2 1 2 1 2 1 Z M-2 1 C0.875 0.875 0.875 0.875 4 1 C4.66 1.66 5.32 2.32 6 3 C1.545 3.495 1.545 3.495 -3 4 C-2.67 3.01 -2.34 2.02 -2 1 Z " fill="#185289" transform="translate(163,100)"/>
<path d="M0 0 C0.99 0.33 1.98 0.66 3 1 C1.515 3.475 1.515 3.475 0 6 C-1.32 5.67 -2.64 5.34 -4 5 C-2.68 3.35 -1.36 1.7 0 0 Z " fill="#256486" transform="translate(332,349)"/>
<path d="M0 0 C0.66 0.33 1.32 0.66 2 1 C-2.75 5.875 -2.75 5.875 -5 7 C-4.1875 4.0625 -4.1875 4.0625 -3 1 C-2.01 0.67 -1.02 0.34 0 0 Z " fill="#1C4871" transform="translate(343,340)"/>
<path d="M0 0 C2 0 2 0 4.1875 1.75 C5.0846875 2.86375 5.0846875 2.86375 6 4 C5.61328125 6.140625 5.61328125 6.140625 5 8 C4.16382818 6.8562364 3.33113541 5.70992861 2.5 4.5625 C2.0359375 3.92441406 1.571875 3.28632813 1.09375 2.62890625 C0 1 0 1 0 0 Z " fill="#1D4C79" transform="translate(40,311)"/>
<path d="" fill="#FFFFFF" transform="translate(0,0)"/>
<path d="" fill="#FFFFFF" transform="translate(0,0)"/>
<path d="" fill="#FFFFFF" transform="translate(0,0)"/>
<path d="" fill="#FFFFFF" transform="translate(0,0)"/>
<path d="" fill="#FFFFFF" transform="translate(0,0)"/>
<path d="" fill="#FFFFFF" transform="translate(0,0)"/>
<path d="" fill="#FFFFFF" transform="translate(0,0)"/>
<path d="" fill="#FFFFFF" transform="translate(0,0)"/>
<path d="" fill="#FFFFFF" transform="translate(0,0)"/>
<path d="" fill="#FFFFFF" transform="translate(0,0)"/>
<path d="" fill="#FFFFFF" transform="translate(0,0)"/>
<path d="" fill="#FFFFFF" transform="translate(0,0)"/>
<path d="" fill="#FFFFFF" transform="translate(0,0)"/>
<path d="" fill="#FFFFFF" transform="translate(0,0)"/>
<path d="" fill="#FFFFFF" transform="translate(0,0)"/>
<path d="" fill="#FFFFFF" transform="translate(0,0)"/>
<path d="" fill="#FFFFFF" transform="translate(0,0)"/>
<path d="" fill="#FFFFFF" transform="translate(0,0)"/>
<path d="" fill="#FFFFFF" transform="translate(0,0)"/>
<path d="" fill="#FFFFFF" transform="translate(0,0)"/>
<path d="" fill="#FFFFFF" transform="translate(0,0)"/>
<path d="" fill="#FFFFFF" transform="translate(0,0)"/>
<path d="" fill="#FFFFFF" transform="translate(0,0)"/>
<path d="" fill="#FFFFFF" transform="translate(0,0)"/>
<path d="" fill="#FFFFFF" transform="translate(0,0)"/>
<path d="" fill="#FFFFFF" transform="translate(0,0)"/>
<path d="" fill="#FFFFFF" transform="translate(0,0)"/>
<path d="" fill="#FFFFFF" transform="translate(0,0)"/>
<path d="" fill="#FFFFFF" transform="translate(0,0)"/>
<path d="" fill="#FFFFFF" transform="translate(0,0)"/>
<path d="" fill="#FFFFFF" transform="translate(0,0)"/>
<path d="" fill="#FFFFFF" transform="translate(0,0)"/>
<path d="" fill="#FFFFFF" transform="translate(0,0)"/>
<path d="" fill="#FFFFFF" transform="translate(0,0)"/>
<path d="" fill="#FFFFFF" transform="translate(0,0)"/>
<path d="" fill="#FFFFFF" transform="translate(0,0)"/>
<path d="" fill="#FFFFFF" transform="translate(0,0)"/>
<path d="" fill="#FFFFFF" transform="translate(0,0)"/>
<path d="" fill="#FFFFFF" transform="translate(0,0)"/>
<path d="" fill="#FFFFFF" transform="translate(0,0)"/>
<path d="" fill="#FFFFFF" transform="translate(0,0)"/>
<path d="" fill="#FFFFFF" transform="translate(0,0)"/>
<path d="" fill="#FFFFFF" transform="translate(0,0)"/>
<path d="" fill="#FFFFFF" transform="translate(0,0)"/>
<path d="" fill="#FFFFFF" transform="translate(0,0)"/>
<path d="" fill="#FFFFFF" transform="translate(0,0)"/>
<path d="" fill="#FFFFFF" transform="translate(0,0)"/>
<path d="" fill="#FFFFFF" transform="translate(0,0)"/>
<path d="" fill="#FFFFFF" transform="translate(0,0)"/>
<path d="" fill="#FFFFFF" transform="translate(0,0)"/>
<path d="" fill="#FFFFFF" transform="translate(0,0)"/>
<path d="" fill="#FFFFFF" transform="translate(0,0)"/>
<path d="" fill="#FFFFFF" transform="translate(0,0)"/>
<path d="" fill="#FFFFFF" transform="translate(0,0)"/>
<path d="" fill="#FFFFFF" transform="translate(0,0)"/>
<path d="" fill="#FFFFFF" transform="translate(0,0)"/>
<path d="" fill="#FFFFFF" transform="translate(0,0)"/>
<path d="" fill="#FFFFFF" transform="translate(0,0)"/>
<path d="" fill="#FFFFFF" transform="translate(0,0)"/>
<path d="" fill="#FFFFFF" transform="translate(0,0)"/>
<path d="" fill="#FFFFFF" transform="translate(0,0)"/>
</svg>
